<?xml version="1.0" encoding="UTF-8"?>
<svg id="Layer_2" data-name="Layer 2" xmlns="http://www.w3.org/2000/svg" xmlns:xlink="http://www.w3.org/1999/xlink" viewBox="0 0 191.96 45.04">
  <defs>
    <style>
      .cls-1 {
        fill: none;
      }

      .cls-1, .cls-2 {
        stroke-width: 0px;
      }

      .cls-3 {
        clip-path: url(#clippath);
      }

      .cls-2 {
        fill: #fff;
      }
    </style>
    <clipPath id="clippath">
      <rect class="cls-1" width="45.04" height="45.04"/>
    </clipPath>
  </defs>
  <g id="Layer_2-2" data-name="Layer 2">
    <g id="Layer_1-2" data-name="Layer 1-2">
      <path class="cls-2" d="M66.22,11.01v23.17h-4.65V11.01h4.65ZM81.01,15.53c2.19,0,3.96.7,5.31,2.09,1.35,1.37,2.03,3.3,2.03,5.78v10.79h-4.65v-10.16c0-1.46-.37-2.58-1.1-3.35-.73-.8-1.73-1.2-2.99-1.2s-2.3.4-3.05,1.2c-.73.77-1.1,1.89-1.1,3.35v10.16h-4.65V15.79h4.65v2.29c.62-.8,1.41-1.42,2.36-1.86.97-.46,2.04-.7,3.19-.7h0ZM91.57,24.92c0-1.86.37-3.51,1.1-4.95.75-1.44,1.77-2.55,3.05-3.32,1.28-.77,2.71-1.16,4.28-1.16,1.19,0,2.33.27,3.42.8,1.08.51,1.95,1.2,2.59,2.06v-8.73h4.71v24.57h-4.71v-2.72c-.58.91-1.38,1.64-2.42,2.19s-2.25.83-3.62.83c-1.55,0-2.97-.4-4.25-1.2s-2.3-1.91-3.05-3.35c-.73-1.46-1.1-3.13-1.1-5.01h0ZM106.04,24.99c0-1.13-.22-2.09-.66-2.89-.44-.82-1.04-1.44-1.79-1.86-.75-.44-1.56-.66-2.42-.66s-1.66.21-2.39.63c-.73.42-1.33,1.04-1.79,1.86-.44.8-.66,1.75-.66,2.86s.22,2.08.66,2.92c.46.82,1.06,1.45,1.79,1.89.75.44,1.55.66,2.39.66s1.67-.21,2.42-.63c.75-.44,1.35-1.06,1.79-1.86.44-.82.66-1.79.66-2.92ZM132.36,24.59c0,.66-.04,1.26-.13,1.79h-13.44c.11,1.33.58,2.37,1.39,3.12.82.75,1.83,1.13,3.02,1.13,1.73,0,2.95-.74,3.68-2.22h5.01c-.53,1.77-1.55,3.23-3.05,4.38-1.5,1.13-3.35,1.69-5.54,1.69-1.77,0-3.36-.39-4.78-1.16-1.39-.8-2.49-1.91-3.29-3.35-.77-1.44-1.16-3.1-1.16-4.98s.39-3.57,1.16-5.01c.77-1.44,1.86-2.55,3.25-3.32s3-1.16,4.81-1.16,3.31.38,4.68,1.13c1.39.75,2.47,1.83,3.22,3.22.77,1.37,1.16,2.95,1.16,4.75h.01ZM127.55,23.26c-.02-1.2-.45-2.15-1.29-2.85-.84-.73-1.87-1.1-3.09-1.1-1.15,0-2.12.35-2.92,1.06-.77.69-1.25,1.65-1.43,2.89,0,0,8.73,0,8.73,0ZM145.91,34.18l-3.79-5.71-3.35,5.71h-4.98l6.01-9.23-6.08-9.16h5.25l3.75,5.68,3.39-5.68h4.98l-6.04,9.16,6.11,9.23h-5.25ZM156.04,13.6c-.82,0-1.5-.25-2.06-.76-.53-.53-.8-1.18-.8-1.96s.27-1.42.8-1.93c.55-.53,1.24-.8,2.06-.8s1.49.27,2.03.8c.55.51.83,1.15.83,1.93s-.28,1.43-.83,1.96c-.53.51-1.21.76-2.03.76ZM158.33,15.79v18.39h-4.65V15.79h4.65ZM171.35,19.61h-3.22v14.57h-4.71v-14.57h-2.09v-3.82h2.09v-.93c0-2.26.64-3.92,1.92-4.98s3.22-1.56,5.81-1.49v3.92c-1.13-.02-1.92.17-2.36.56-.44.4-.66,1.12-.66,2.16v.76h3.22v3.82h0ZM191.96,15.79l-11.39,27.09h-4.95l3.98-9.16-7.37-17.93h5.21l4.75,12.85,4.81-12.85h4.96Z"/>
      <g class="cls-3">
        <g>
          <path class="cls-2" d="M45.02,25.1c-.31,3.03-1.21,5.88-2.61,8.44-1.39.57-3.07.97-5.26.97-4.59,0-7.03-1.77-9-3.19-1.68-1.21-2.89-2.09-5.6-2.09s-3.92.87-5.6,2.09c-1.97,1.42-4.41,3.19-8.99,3.19-2.17,0-3.86-.4-5.26-.97C1.32,30.98.42,28.13.11,25.1c.86.48,1.58,1.01,2.27,1.5,1.68,1.21,2.88,2.09,5.6,2.09s3.92-.87,5.6-2.09c1.97-1.42,4.41-3.18,9-3.18s7.03,1.76,9,3.18c1.68,1.21,2.89,2.09,5.6,2.09s3.92-.87,5.6-2.09c.67-.49,1.41-1.01,2.27-1.5h-.03Z"/>
          <path class="cls-2" d="M36.92,40.21c-2.03,1.68-4.35,3-6.89,3.89-.68-.41-1.3-.86-1.86-1.27-1.68-1.21-2.89-2.09-5.6-2.09s-3.92.87-5.6,2.09c-.57.41-1.17.85-1.87,1.27-2.54-.89-4.86-2.21-6.89-3.89,2.54-.04,3.73-.9,5.35-2.09,1.97-1.42,4.41-3.18,9-3.18s7.03,1.76,9,3.18c1.62,1.19,2.81,2.03,5.36,2.09Z"/>
          <path class="cls-2" d="M22.56.23c11.83,0,21.53,9.1,22.49,20.69h-7.16c-.93-7.64-7.43-13.56-15.32-13.56s-14.4,5.92-15.33,13.56H.08C1.03,9.33,10.73.23,22.56.23Z"/>
        </g>
      </g>
    </g>
  </g>
</svg>